<svg xmlns="http://www.w3.org/2000/svg" viewBox="-0.274 -0.233 9.806999999999999 9.362">
  <path d="M -0.274 7.704 L 4.751 9.129 L 9.533 7.724 L 9.264 7.686 L 4.751 8.99 L 0.197 7.703 L 0.507 7.641 L 4.751 8.837 L 9 7.663 L 9.264 7.686 L 9.533 7.724 L 9.503 7.645 L 9 7.58 L 4.751 8.753 L 0.507 7.567 L -0.274 7.704 M 0.479 7.572 V 6.518 L 1.245 6.475 L 4.788 7.335 L 8.328 6.499 L 9.049 6.523 L 8.798 6.591 L 8.339 6.575 L 4.788 7.408 L 1.235 6.535 L 0.555 6.559 L 4.788 7.583 L 9.049 6.523 V 7.588 L 9 7.58 L 8.971 7.588 L 8.961 6.631 L 4.828 7.679 V 8.73 L 4.751 8.753 L 4.716 8.7432 V 7.671 L 0.553 6.61 V 7.58 L 0.507 7.567 M 1.21 6.4762 V 5.594 L 1.861 5.517 V 4.749 L 3.291 4.501 L 3.314 4.543 L 2.029 4.783 L 4.762 5.362 L 7.47 4.804 L 5.643 4.487 L 5.647 4.404 L 7.706 4.743 V 5.515 L 7.628 5.519 V 4.835 L 4.807 5.439 V 6.126 H 4.733 V 5.433 L 1.95 4.833 V 5.516 L 4.772 6.128 L 7.656 5.512 L 8.325 5.538 L 8.162 5.582 L 7.657 5.559 L 4.774 6.218 L 1.91 5.575 L 1.327 5.636 L 4.785 6.391 L 8.162 5.582 L 8.325 5.538 V 6.5 L 8.237 6.534 V 5.626 L 4.838 6.467 V 7.348 H 4.736 V 6.458 L 1.27 5.665 V 6.487 M 3.373 4.661 L 2.698 4.801 L 4.741 5.243 L 6.849 4.784 L 5.67 4.589 L 5.648 4.639 L 6.581 4.781 L 4.74 5.179 L 2.957 4.806 L 3.418 4.72 Z M 3.924 0.301 Q 4.432 1.012 4.812 1.728 Q 4.876 0.659 4.23 0.074 Q 4.996 0.632 5.185 1.996 L 5.228 2.462 Q 5.302 2.748 5.305 3.126 Q 5.538 2.811 5.881 2.629 Q 5.777 2.716 5.624 3.011 C 5.737 3.008 5.925 2.739 5.978 2.524 Q 6.068 2.226 6.048 1.745 Q 6.174 2.237 6.144 2.783 Q 6.2 2.752 6.235 2.673 Q 6.2105 2.782 6.153 2.851 C 6.169 3.144 6.014 3.333 5.909 3.479 S 5.977 4.179 5.435 5.029 L 4.74 5.179 L 3.568 4.934 C 2.881 3.906 3.155 3.837 3.376 3.053 Q 3.281 2.599 3.31 2.361 Q 3.255 2.076 2.786 1.726 Q 3.129 1.853 3.333 2.071 Q 3.409 1.889 3.369 1.697 C 2.873 1.371 3.488 0.924 3.018 0.235 C 3.651 0.659 3.286 1.049 3.429 1.549 C 3.512 1.461 3.447 1.452 3.5 1.312 C 3.602 1.533 3.424 1.569 3.5 1.689 C 3.712 2.155 3.712 2.353 3.98 2.663 Q 4.156 1.869 3.498 1.057 Q 3.89 1.243 4.154 1.657 C 4.273 1.449 4.222 1.209 3.924 0.301 Z M 3.335 3.605 Q 3.167 4.163 3.427 4.537 T 3.407 3.892 C 3.376 3.85 3.393 3.553 3.335 3.605 Z M 3.253 0.574 C 3.357 1.005 3.121 1.301 3.379 1.577 C 3.231 1.163 3.426 0.937 3.252 0.571 Z M 3.448 1.815 C 3.128 3.375 4.023 3.503 3.803 4.74 C 4.306 2.611 3.906 3.087 3.448 1.815 Z M 3.463 2.228 C 3.283 2.966 3.769 3.125 3.834 3.57 C 4.133 2.838 3.604 2.697 3.463 2.228 Z M 3.728 1.252 Q 4.238 1.964 4.066 2.841 C 4.35 3.506 3.833 4.176 4.231 4.71 C 4.041 2.944 4.945 2.543 3.728 1.252 Z M 4.398 1.376 C 4.51 1.606 4.571 1.819 4.52 2.038 S 4.803 2.322 4.727 2.03 C 4.685 1.889 4.629 1.641 4.398 1.376 Z M 4.889 1.103 C 5.188 3.349 3.903 2.971 4.995 4.836 C 5.539 4.208 4.983 3.72 5.113 2.754 Q 5.21 2.022 4.889 1.103 M 6.078 2.327 C 5.835 3.473 5.396 2.648 5.363 4.085 C 5.464 3.33 6.28 3.669 6.078 2.327 Z M 5.716 3.66 C 5.55 3.741 5.453 3.985 5.607 4.28 C 5.592 4.058 5.738 3.939 5.715 3.646 Z M 5.422 -0.232 C 5.189 0.138 4.901 0.08 4.947 0.523 C 4.985 0.8 5.145 0.774 5.145 0.584 C 5.116 0.303 5.261 0.134 5.424 -0.233 Z M 5.215 0.078 C 5.006 0.271 5.143 0.549 5.054 0.64 C 4.949 0.497 4.978 0.264 5.24 0.05 Z M 5.322 0.533 C 5.639 1.154 4.953 1.259 5.4 1.579 C 5.233 1.25 5.97 1.111 5.301 0.509 M 5.459 0.771 C 5.656 1.086 5.369 1.161 5.325 1.432 C 5.201 1.315 5.502 1.127 5.459 0.771 Z M 5.84 0.817 C 6.053 1.252 5.642 1.287 5.785 1.576 C 6.128 2.466 5.691 2.18 5.618 2.522 C 5.827 1.926 5.461 1.854 5.556 1.399 C 5.65 1.077 5.754 1.226 5.84 0.817 M 5.813 1.117 C 5.368 1.554 5.818 1.938 5.751 2.203 C 6.03 1.711 5.414 1.673 5.813 1.117 Z M 2.835 1.238 C 2.453 1.737 2.663 2.011 2.469 2.122 Q 2.404 2.15 2.356 2.06 C 2.185 1.749 2.599 1.4 2.835 1.238 M 2.642 1.454 C 2.541 1.63 2.345 1.803 2.432 2.049 C 2.525 2.115 2.469 1.715 2.642 1.454 Z M 2.777 1.963 C 3.288 2.51 2.784 2.578 2.774 3.02 C 2.414 2.641 2.979 2.63 2.777 1.963 M 2.878 2.182 C 2.892 2.606 2.59 2.737 2.748 2.897 C 2.785 2.549 3.089 2.495 2.878 2.182 Z" />
</svg>
