<svg xmlns="http://www.w3.org/2000/svg" viewBox="4.8 4.1 2 6">
  <path d="M 5.014 4.253 Q 5.902 4.124 6.642 4.244 Q 6.704 4.255 6.694 4.283 L 6.624 4.461 Q 6.611 4.497 6.587 4.497 L 6.553 4.497 Q 6.545 4.497 6.543 4.509 L 6.415 5.428 Q 6.414 5.435 6.407 5.44 C 6.383 5.455 6.338 5.471 6.321 5.506 S 6.322 5.579 6.325 5.587 Q 6.333 5.603 6.327 5.61 Q 6.012 5.833 6.147 6.174 Q 6.151 6.191 6.138 6.191 L 6.126 6.191 Q 6.119 6.191 6.118 6.196 L 6.116 6.234 Q 6.116 6.245 6.109 6.245 L 6.093 6.245 Q 6.033 6.244 6.033 6.272 L 6.033 6.98 Q 6.085 6.98 6.084 7.03 Q 6.107 7.03 6.107 7.055 L 6.107 7.245 Q 6.107 7.269 6.08 7.269 Q 6.08 7.346 6.03 7.346 L 6.033 9.56 Q 6.037 9.56 6.037 9.585 Q 6.045 9.585 6.045 9.618 Q 6.068 9.618 6.068 9.827 Q 6.068 9.878 6.014 9.878 Q 6.016 10.016 5.9 10.015 L 5.771 10.016 Q 5.703 10.016 5.7 9.878 Q 5.644 9.878 5.645 9.827 Q 5.644 9.618 5.676 9.618 Q 5.676 9.585 5.684 9.585 Q 5.684 9.56 5.688 9.56 L 5.688 7.346" fill="#00000"/>
</svg>